<?xml version="1.0" standalone="no"?>
<!DOCTYPE svg PUBLIC "-//W3C//DTD SVG 20010904//EN"
 "http://www.w3.org/TR/2001/REC-SVG-20010904/DTD/svg10.dtd">
<svg version="1.0" xmlns="http://www.w3.org/2000/svg"
 width="1080.000000pt" height="1080.000000pt" viewBox="0 0 1080.000000 1080.000000"
 preserveAspectRatio="xMidYMid meet">
<metadata>
Created by potrace 1.15, written by Peter Selinger 2001-2017
</metadata>
<g transform="translate(0.000000,1080.000000) scale(0.100000,-0.100000)"
fill="#000000" stroke="none">
<path d="M7066 9934 c-14 -14 -16 -271 -16 -2677 0 -2433 1 -2665 16 -2686
l16 -23 452 5 c408 4 457 6 511 23 49 15 90 19 225 18 150 0 173 -3 255 -28
300 -90 532 -287 673 -571 131 -265 155 -607 60 -890 -34 -103 -104 -238 -166
-321 -308 -414 -828 -545 -1276 -323 -43 22 -109 62 -146 89 -112 83 -87 103
-375 -292 -138 -188 -265 -356 -282 -374 -18 -18 -33 -41 -33 -50 0 -23 58
-74 175 -153 422 -288 885 -392 1419 -321 436 59 903 325 1207 688 468 560
636 1308 455 2026 -166 654 -612 1188 -1205 1444 -288 124 -625 180 -921 152
-69 -6 -135 -14 -147 -17 l-23 -5 0 2132 c0 1450 -3 2137 -10 2151 -10 18 -26
19 -430 19 -367 0 -421 -2 -434 -16z"/>
<path d="M5180 9914 c-14 -2 -59 -9 -100 -15 -97 -15 -247 -59 -351 -105 -447
-197 -787 -607 -914 -1101 -59 -231 -57 -99 -52 -2876 3 -1780 7 -2563 15
-2612 6 -38 16 -115 22 -170 27 -234 63 -388 130 -558 93 -236 217 -424 400
-607 151 -151 272 -239 445 -324 208 -103 368 -146 614 -165 104 -9 127 -8
146 5 13 8 25 21 27 27 6 16 -11 768 -17 785 -7 19 -45 30 -142 42 -353 44
-646 311 -737 671 -44 175 -46 247 -46 1752 l0 1427 635 0 635 0 0 -2319 c0
-1613 3 -2328 11 -2348 5 -15 16 -31 22 -35 14 -9 881 -11 914 -2 24 7 31 19
44 87 5 29 9 1462 9 3531 l1 3482 -22 109 c-148 771 -800 1331 -1539 1324 -69
-1 -136 -3 -150 -5z m283 -1069 c170 -44 312 -163 391 -327 42 -87 49 -114 76
-262 6 -37 10 -290 10 -668 l0 -608 -600 0 -600 0 -2 618 c0 339 0 642 1 672
7 162 102 354 224 453 62 52 165 105 232 121 79 19 197 20 268 1z"/>
<path d="M2632 9638 c-9 -9 -12 -726 -12 -3165 0 -2223 -3 -3174 -11 -3225
-34 -225 -80 -350 -180 -482 -95 -124 -256 -232 -409 -272 -87 -23 -263 -23
-350 0 -285 75 -512 319 -570 613 -7 35 -18 70 -24 78 -7 10 -158 49 -445 115
-551 127 -505 120 -530 79 -26 -42 -28 -154 -6 -322 46 -354 185 -683 407
-963 71 -91 251 -259 359 -337 114 -81 339 -195 469 -235 251 -79 558 -98 825
-51 371 65 744 286 1002 592 223 267 356 558 426 932 l22 120 3 3244 c2 2908
1 3246 -13 3267 l-15 24 -468 0 c-351 0 -471 -3 -480 -12z"/>
</g>
</svg>
